<?xml version="1.0" encoding="utf-8"?>
<!-- Generator: Adobe Illustrator 23.0.0, SVG Export Plug-In . SVG Version: 6.00 Build 0)  -->
<svg version="1.1" id="图层_1" xmlns="http://www.w3.org/2000/svg" xmlns:xlink="http://www.w3.org/1999/xlink" x="0px" y="0px"
	 viewBox="0 0 400 180" style="enable-background:new 0 0 400 180;" xml:space="preserve">
<style type="text/css">
	.st0{fill:none;stroke:#244985;stroke-width:2;stroke-miterlimit:10;}
	.st1{fill:none;stroke:#3CEBEA;stroke-width:1.8127;stroke-miterlimit:10;}
	.st2{fill:#3CEBEA;}
	.st3{font-family:'MicrosoftYaHei';}
	.st4{font-size:12px;}
	.st5{fill:#244985;}
  .st2.st3.st4{display:none;}
</style>
<line class="st0" x1="65" y1="126" x2="10" y2="126"/>
<line class="st0" x1="184" y1="126" x2="74" y2="126"/>
<path class="st0" d="M314,34h39c25.41,0,46,20.59,46,46v0c0,25.41-20.59,46-46,46h-39"/>
<line class="st1" x1="193" y1="34" x2="304" y2="34"/>
<line class="st1" x1="75" y1="34" x2="184" y2="34"/>
<polyline class="st1" points="6,34 10,34 66,34 "/>
<g>
	<text transform="matrix(1 0 0 1 58.6667 55.2891)" class="st2 st3 st4">施工</text>
</g>
<g>
	<text transform="matrix(1 0 0 1 26.4284 71.2891)" class="st2 st3 st4">计划：19/08/23</text>
</g>
<g>
	<text transform="matrix(1 0 0 1 27.7617 87.2891)" class="st2 st3 st4">实际：19/08/23</text>
</g>
<g>
	<circle class="st2" cx="5" cy="34" r="5"/>
</g>
<g>
	<circle class="st2" cx="70.67" cy="34" r="5"/>
</g>
<g>
	<circle class="st2" cx="189.19" cy="34" r="5"/>
</g>
<g>
	<text transform="matrix(1 0 0 1 177.1875 55.2891)" class="st2 st3 st4">土方</text>
</g>
<g>
	<text transform="matrix(1 0 0 1 144.9492 71.2891)" class="st2 st3 st4">计划：19/08/23</text>
</g>
<g>
	<text transform="matrix(1 0 0 1 144.9492 87.2891)" class="st2 st3 st4">实际：19/08/23</text>
</g>
<g>
	<text transform="matrix(1 0 0 1 296.4999 55.2891)" class="st2 st3 st4">土方</text>
</g>
<g>
	<text transform="matrix(1 0 0 1 264.2616 71.2891)" class="st2 st3 st4">计划：19/08/23</text>
</g>
<g>
	<text transform="matrix(1 0 0 1 264.2616 87.2891)" class="st2 st3 st4">实际：19/08/23</text>
</g>
<g>
	<circle class="st2" cx="308.5" cy="34" r="5"/>
</g>
<g>
	<text transform="matrix(1 0 0 1 296.5002 145.2886)" class="st2 st3 st4">支护</text>
</g>
<g>
	<text transform="matrix(1 0 0 1 264.2619 158.9355)" class="st2 st3 st4">计划：19/08/23</text>
</g>
<g>
	<text transform="matrix(1 0 0 1 264.2619 173.9355)" class="st2 st3 st4">实际：19/08/23</text>
</g>
<g>
	<text transform="matrix(1 0 0 1 177.1875 145.2886)" class="st2 st3 st4">装饰</text>
</g>
<g>
	<text transform="matrix(1 0 0 1 144.9492 158.9355)" class="st2 st3 st4">计划：19/08/23</text>
</g>
<g>
	<text transform="matrix(1 0 0 1 144.9492 173.9355)" class="st2 st3 st4">实际：19/08/23</text>
</g>
<g>
	<g>
		<path class="st5" d="M308.5,123c1.65,0,3,1.35,3,3s-1.35,3-3,3s-3-1.35-3-3S306.85,123,308.5,123 M308.5,121c-2.76,0-5,2.24-5,5
			c0,2.76,2.24,5,5,5s5-2.24,5-5C313.5,123.24,311.26,121,308.5,121L308.5,121z"/>
	</g>
</g>
<g>
	<g>
		<path class="st5" d="M189.19,123c1.65,0,3,1.35,3,3s-1.35,3-3,3s-3-1.35-3-3S187.53,123,189.19,123 M189.19,121
			c-2.76,0-5,2.24-5,5c0,2.76,2.24,5,5,5s5-2.24,5-5C194.19,123.24,191.95,121,189.19,121L189.19,121z"/>
	</g>
</g>
<g>
	<g>
		<path class="st5" d="M5,123c1.65,0,3,1.35,3,3s-1.35,3-3,3s-3-1.35-3-3S3.35,123,5,123 M5,121c-2.76,0-5,2.24-5,5
			c0,2.76,2.24,5,5,5s5-2.24,5-5C10,123.24,7.76,121,5,121L5,121z"/>
	</g>
</g>
<g>
	<g>
		<g>
			<path class="st2" d="M87.9,19.97c0.46-2.28-0.75-3.96-2.34-5.38c-0.02-0.03-0.05-0.05-0.08-0.06c-0.26-0.18-0.61-0.1-0.77,0.17
				l-1.51,2.38c-0.06,0.08-0.09,0.17-0.1,0.26l0.55,0.09l-0.55-0.09c-0.17,1.2-0.56,2-1.19,2.54c-0.65,0.57-1.59,0.9-2.8,1.17
				c-0.13,0.03-0.25,0.09-0.34,0.21c-0.19,0.25-0.15,0.62,0.09,0.81l0.35-0.45l-0.35,0.45c2.27,1.89,4.65,2.02,6.41,1.2
				c0.66-0.32,1.25-0.77,1.69-1.34C87.43,21.36,87.75,20.69,87.9,19.97L87.9,19.97z"/>
		</g>
		<path class="st2" d="M87.9,19.97"/>
		<g>
			<path class="st2" d="M62.01,15.02c0.25-1.2,0.87-2.14,1.91-2.14H66c0.01-0.54,0-1.09,0-1.65c-0.01-0.76-0.02-1.52,0-2.27
				c0-0.32,0.26-0.57,0.58-0.57h0.02c1.06-0.02,2.49-0.01,3.77,0h1.65c0.22,0,0.41,0.13,0.5,0.32c0.74,1.22,1.7,2.95,2.51,4.43
				c0.18,0.31,0.34,0.6,0.5,0.9c0.37-0.53,0.79-1.13,1.21-1.74c0.64-0.93,1.29-1.84,1.72-2.46c0.5-0.68,1-0.99,1.56-0.94
				c0.51,0.04,1,0.39,1.52,1.02l2.9,3.46c0.16,0.21,0.18,0.5,0.03,0.72c-0.18,0.27-0.3,0.5-0.44,0.75
				c-0.21,0.39-0.44,0.77-0.82,1.33c-0.18,0.26-0.53,0.31-0.78,0.13c-0.06-0.05-0.11-0.1-0.15-0.15c-0.26-0.35-0.46-0.61-0.66-0.86
				c-0.45-0.59-0.91-1.18-1.4-1.79c-0.14-0.18-0.11-0.31-0.15-0.28c-0.15,0.08-0.41,0.46-0.81,1.11l-3.32,5.24
				c-0.11,0.17-0.29,0.26-0.47,0.26c-3.84,0.07-7.72,0-11.56,0c-1.01,0-1.65-0.97-1.9-2.2c-0.09-0.41-0.14-0.86-0.14-1.31
				C61.88,15.87,61.93,15.43,62.01,15.02z M67.79,13.16c0,0.15,0.06,0.3,0.16,0.41c0.11,0.11,0.25,0.17,0.4,0.17h3.92
				c0.09,0,0.19-0.03,0.28-0.08c0.28-0.15,0.36-0.5,0.21-0.79l-1.36-2.48c-0.09-0.21-0.29-0.35-0.51-0.35h-2.54
				c-0.31,0-0.56,0.27-0.56,0.58V13.16z"/>
		</g>
		<g>
			<path class="st2" d="M63.48,21.28c0-0.01,0.01-0.01,0.02-0.03c0.48-0.49,1.14-0.8,1.86-0.8h9.61c0.72,0,1.39,0.31,1.86,0.8
				c0.47,0.49,0.77,1.16,0.77,1.91c0,0.73-0.29,1.39-0.75,1.88c0,0.01-0.01,0.02-0.02,0.04c-0.48,0.49-1.14,0.8-1.86,0.8h-9.61
				c-0.71,0-1.35-0.3-1.82-0.76c-0.01-0.01-0.03-0.03-0.04-0.04c-0.47-0.49-0.77-1.17-0.77-1.92
				C62.73,22.44,63.02,21.77,63.48,21.28z M64.3,24.26l0.03,0.03c0.26,0.27,0.64,0.44,1.04,0.44h9.61c0.41,0,0.8-0.18,1.06-0.46
				c0.01,0,0.02-0.01,0.02-0.03c0.26-0.27,0.42-0.66,0.42-1.07c0-0.42-0.17-0.81-0.45-1.09c-0.28-0.28-0.65-0.45-1.06-0.45h-9.61
				c-0.41,0-0.79,0.17-1.06,0.45l-0.02,0.03c-0.26,0.28-0.43,0.66-0.43,1.07C63.85,23.59,64.03,23.99,64.3,24.26z"/>
		</g>
		<path class="st2" d="M65.37,21.62"/>
		<g>
			<path class="st2" d="M66.02,22.2c-0.51,0-0.94,0.44-0.94,0.97c0,0.54,0.42,0.97,0.94,0.97c0.52,0,0.94-0.43,0.94-0.97
				C66.95,22.64,66.54,22.2,66.02,22.2L66.02,22.2z M68.79,22.2c-0.53,0-0.94,0.44-0.94,0.97c0,0.54,0.41,0.97,0.94,0.97
				c0.51,0,0.94-0.43,0.94-0.97C69.73,22.64,69.3,22.2,68.79,22.2L68.79,22.2z M71.55,22.2c-0.51,0-0.94,0.44-0.94,0.97
				c0,0.54,0.43,0.97,0.94,0.97c0.52,0,0.94-0.43,0.94-0.97C72.49,22.64,72.07,22.2,71.55,22.2L71.55,22.2z M74.32,22.2
				c-0.52,0-0.94,0.44-0.94,0.97c0,0.54,0.41,0.97,0.94,0.97c0.51,0,0.94-0.43,0.94-0.97C75.26,22.64,74.83,22.2,74.32,22.2
				L74.32,22.2z M74.32,22.2"/>
		</g>
	</g>
</g>
<g>
	<g>
		<path class="st5" d="M69,123c1.65,0,3,1.35,3,3s-1.35,3-3,3s-3-1.35-3-3S67.35,123,69,123 M69,121c-2.76,0-5,2.24-5,5
			c0,2.76,2.24,5,5,5s5-2.24,5-5C74,123.24,71.76,121,69,121L69,121z"/>
	</g>
</g>
<g>
	<text transform="matrix(1 0 0 1 60 145.2886)" class="st2 st3 st4">装饰</text>
</g>
<g>
	<text transform="matrix(1 0 0 1 27.7617 158.9355)" class="st2 st3 st4">计划：19/08/23</text>
</g>
<g>
	<text transform="matrix(1 0 0 1 27.7617 173.9355)" class="st2 st3 st4">实际：19/08/23</text>
</g>
<line class="st0" x1="304" y1="126" x2="194" y2="126"/>
</svg>
